<svg width="87" height="87" viewBox="0 0 87 87" fill="none" xmlns="http://www.w3.org/2000/svg">
<path d="M21.2265 24.7938C20.3839 24.3401 19.3649 24.3628 18.5434 24.8535C17.7218 25.3442 17.2188 26.2306 17.2188 27.1876V61.6251C17.2188 63.1266 18.436 64.3438 19.9375 64.3438C21.439 64.3438 22.6563 63.1266 22.6563 61.6251V31.7394L42.2111 42.2689C43.0157 42.7021 43.9843 42.7021 44.789 42.2689L64.3438 31.7394V61.6251C64.3438 63.1266 65.561 64.3438 67.0625 64.3438C68.564 64.3438 69.7813 63.1266 69.7813 61.6251V27.1876C69.7813 26.2306 69.2782 25.3442 68.4567 24.8535C67.6351 24.3628 66.6161 24.3401 65.7736 24.7938L43.5 36.7872L21.2265 24.7938Z" fill="#27AE60"/>
<path fill-rule="evenodd" clip-rule="evenodd" d="M62.7509 13.4917C49.9426 12.3465 37.0575 12.3465 24.2492 13.4917L18.7488 13.9835C12.8487 14.5111 8.08158 19.0185 7.22466 24.8798C5.41942 37.2277 5.41942 49.7725 7.22466 62.1203C8.08158 67.9817 12.8487 72.4891 18.7488 73.0166L24.2492 73.5084C37.0576 74.6536 49.9426 74.6536 62.7509 73.5084L68.2513 73.0166C74.1514 72.4891 78.9185 67.9817 79.7754 62.1203C81.5807 49.7725 81.5807 37.2277 79.7754 24.8798C78.9185 19.0185 74.1514 14.5111 68.2513 13.9835L62.7509 13.4917ZM24.7334 18.9076C37.2196 17.7912 49.7805 17.7912 62.2667 18.9076L67.767 19.3994C71.1605 19.7028 73.9023 22.2953 74.3951 25.6664C76.1241 37.4926 76.1241 49.5075 74.3951 61.3338C73.9023 64.7049 71.1605 67.2973 67.767 67.6007L62.2667 68.0925C49.7805 69.2089 37.2196 69.2089 24.7334 68.0925L19.2331 67.6007C15.8396 67.2973 13.0978 64.7049 12.605 61.3338C10.876 49.5075 10.876 37.4926 12.605 25.6664C13.0978 22.2953 15.8396 19.7028 19.2331 19.3994L24.7334 18.9076Z" fill="#27AE60"/>
</svg>
