<svg width="66" height="66" viewBox="0 0 66 66" fill="none" xmlns="http://www.w3.org/2000/svg">
<path d="M22.5409 17.1998C23.1472 17.2161 23.8194 17.249 24.4589 18.6742C24.883 19.623 25.5974 21.3696 26.1794 22.7924C26.6322 23.8996 27.0049 24.8107 27.0982 24.9971C27.3112 25.423 27.4424 25.9144 27.1637 26.4876C27.1309 26.5552 27.0998 26.6199 27.07 26.6821C26.8464 27.1479 26.6873 27.4793 26.3114 27.9128C26.1568 28.0909 25.9958 28.2862 25.8354 28.4809C25.5532 28.8232 25.2729 29.1632 25.0326 29.4035C24.6064 29.8291 24.1636 30.2881 24.6554 31.1398C25.1474 31.9915 26.8687 34.7926 29.4097 37.0532C32.1415 39.4948 34.517 40.5238 35.7177 41.0439C35.9509 41.1449 36.1397 41.2267 36.2783 41.2959C37.131 41.7218 37.639 41.6562 38.1308 41.083C38.6228 40.5095 40.262 38.5929 40.8359 37.7412C41.3933 36.8895 41.9669 37.0206 42.754 37.3154C43.5407 37.6101 47.7374 39.6741 48.5898 40.0999C48.7583 40.1842 48.9159 40.26 49.062 40.3304C49.6551 40.6159 50.0582 40.81 50.2292 41.0993C50.4423 41.4596 50.4423 43.1633 49.7374 45.1617C49.0162 47.1601 45.5407 49.0767 43.9669 49.2241C43.8179 49.2382 43.6696 49.2562 43.517 49.2747C42.0748 49.4499 40.2439 49.6722 33.721 47.0946C25.6834 43.9215 20.3778 36.0487 19.3051 34.457C19.2204 34.3313 19.1621 34.2448 19.1309 34.2028L19.1128 34.1784C18.6247 33.5229 15.639 29.5121 15.639 25.374C15.639 21.4149 17.5817 19.3537 18.4678 18.4135C18.524 18.3539 18.5759 18.2988 18.6228 18.2481C19.4096 17.3964 20.3278 17.1834 20.9015 17.1834C21.4754 17.1834 22.0491 17.1834 22.5409 17.1998Z" fill="white" fill-opacity="0.87"/>
<path fill-rule="evenodd" clip-rule="evenodd" d="M0.331638 64.3144C0.0605024 65.3024 0.956884 66.2144 1.9446 65.9554L17.213 61.9517C22.0327 64.5726 27.4589 65.9649 32.9837 65.9649H33C51.1802 65.9649 66 51.1732 66 32.9907C66 24.178 62.5734 15.8892 56.3441 9.66444C50.1148 3.43994 41.8359 0 32.9997 0C14.8198 0 2.10206e-06 14.7917 2.10206e-06 32.9744C-0.00206386 38.7588 1.51876 44.4419 4.4098 49.4532L0.331638 64.3144ZM9.20216 50.7787C9.55616 49.4887 9.37932 48.11 8.71134 46.9521C6.25853 42.7004 4.96915 37.8788 4.9709 32.9744C4.9709 17.5715 17.5415 4.9904 32.9997 4.9904C40.522 4.9904 47.5399 7.90807 52.8374 13.2015C58.1288 18.489 61.0291 25.5046 61.0291 32.9907C61.0291 48.3934 48.4585 60.9745 33 60.9745H32.9837C28.2894 60.9745 23.6765 59.791 19.5806 57.5637C18.472 56.9609 17.1766 56.8035 15.9568 57.1233L6.80235 59.5238L9.20216 50.7787Z" fill="white" fill-opacity="0.87"/>
</svg>
