<svg width="87" height="87" viewBox="0 0 87 87" fill="none" xmlns="http://www.w3.org/2000/svg">
<path d="M58 25.375C58 23.3729 59.623 21.75 61.625 21.75C63.627 21.75 65.25 23.3729 65.25 25.375C65.25 27.377 63.627 29 61.625 29C59.623 29 58 27.377 58 25.375Z" fill="white" fill-opacity="0.87"/>
<path fill-rule="evenodd" clip-rule="evenodd" d="M43.5 26.2812C33.9903 26.2812 26.2812 33.9903 26.2812 43.5C26.2812 53.0096 33.9903 60.7187 43.5 60.7187C53.0096 60.7187 60.7187 53.0096 60.7187 43.5C60.7187 33.9903 53.0096 26.2812 43.5 26.2812ZM31.7187 43.5C31.7187 36.9934 36.9934 31.7187 43.5 31.7187C50.0066 31.7187 55.2812 36.9934 55.2812 43.5C55.2812 50.0066 50.0066 55.2812 43.5 55.2812C36.9934 55.2812 31.7187 50.0066 31.7187 43.5Z" fill="white" fill-opacity="0.87"/>
<path fill-rule="evenodd" clip-rule="evenodd" d="M62.5612 10.2697C49.9948 8.86519 37.0052 8.86519 24.4389 10.2697C17.1452 11.0848 11.257 16.8305 10.3995 24.1622C8.89679 37.0103 8.89679 49.9897 10.3995 62.8378C11.257 70.1694 17.1452 75.9151 24.4389 76.7303C37.0052 78.1348 49.9948 78.1348 62.5612 76.7303C69.8549 75.9151 75.7431 70.1694 76.6006 62.8378C78.1033 49.9897 78.1033 37.0103 76.6006 24.1622C75.7431 16.8305 69.8549 11.0848 62.5612 10.2697ZM25.0429 15.6735C37.2078 14.3139 49.7923 14.3139 61.9572 15.6735C66.7788 16.2124 70.6412 20.0173 71.1999 24.7938C72.6535 37.2222 72.6535 49.7777 71.1999 62.2061C70.6412 66.9827 66.7788 70.7875 61.9572 71.3264C49.7923 72.686 37.2078 72.686 25.0429 71.3264C20.2212 70.7875 16.3588 66.9827 15.8002 62.2061C14.3466 49.7777 14.3466 37.2222 15.8002 24.7938C16.3588 20.0173 20.2212 16.2124 25.0429 15.6735Z" fill="white" fill-opacity="0.87"/>
</svg>
